<svg width="198" height="61" viewBox="0 0 198 61" fill="none" xmlns="http://www.w3.org/2000/svg">
<path d="M62.4632 32.2025C55.5571 32.2025 51.1433 28.3591 51.1433 21.8134C51.1433 15.4178 56.0976 10.6737 63.1538 10.6737C65.736 10.6737 68.7386 11.4243 69.9097 12.175L70.0298 15.7481L69.7295 15.8082C68.5585 13.0758 65.706 11.2442 62.1329 11.2442C57.3587 11.2442 53.6655 14.427 53.6655 20.5523C53.6354 26.1973 57.0584 31.602 63.3039 31.602C66.5467 31.602 69.0689 29.8905 70.2399 26.6476L70.5702 26.6777L70.0898 30.5811C68.6786 31.3618 65.8261 32.2025 62.4632 32.2025Z" fill="#C19915"/>
<path d="M81.6863 32.2025C77.8729 32.2025 73.8194 29.8304 73.8194 24.6059C73.8194 19.9218 77.5727 16.6789 81.6863 16.6789C85.4095 16.6789 89.5231 18.9609 89.5231 24.3056C89.5231 29.4401 85.2294 32.2025 81.6863 32.2025ZM82.5871 31.5719C85.7999 31.5719 87.2411 28.9897 87.2411 26.0771C87.2411 22.2038 84.5087 17.0393 80.5753 17.2494C77.5126 17.3695 76.1314 19.8917 76.1314 22.8944C76.1314 26.7077 78.5936 31.5719 82.5871 31.5719Z" fill="#C19915"/>
<path d="M92.6627 31.9022V31.5119C93.5935 31.2417 93.8638 30.5511 93.8638 28.0889V21.1829C93.8638 19.081 93.5035 18.7808 92.6627 18.4205V18.0902L95.9656 16.6489L96.2058 16.8591V19.4414C97.9473 18.0301 100.259 16.6789 102.571 16.6789C105.514 16.6789 107.316 18.3904 107.316 21.9035V28.0889C107.316 30.5511 107.586 31.2417 108.517 31.5119V31.9022H103.772V31.5119C104.703 31.2417 104.973 30.5511 104.973 28.0889V22.504C104.973 19.3813 103.652 17.6698 101.01 17.6698C99.3586 17.6698 97.7372 18.6607 96.2058 19.9218V28.0889C96.2058 30.5511 96.5061 31.2417 97.4069 31.5119V31.9022H92.6627Z" fill="#C19915"/>
<path d="M116.923 32.1725C114.521 32.1725 112.45 31.4518 111.459 30.7913L111.188 27.1581L111.459 27.098C112.72 29.9505 114.852 31.662 117.584 31.6921C119.446 31.6921 120.827 30.5811 120.827 28.8996C120.827 26.7377 118.725 26.0471 116.413 25.2965C113.561 24.3957 111.519 23.615 111.519 20.8826C111.519 18.5105 113.5 16.6789 116.984 16.6789C118.935 16.6789 120.707 17.0993 121.638 17.4896L121.758 20.5523L121.457 20.6124C120.497 18.4505 118.575 17.0693 116.443 17.0693C114.401 17.0693 113.08 18.0601 113.08 19.5915C113.08 21.4831 115.002 22.2638 117.374 23.0445C119.656 23.7952 122.418 24.4858 122.418 27.4884C122.418 30.0106 120.527 32.1424 116.923 32.1725Z" fill="#C19915"/>
<path d="M132.607 32.2025C129.123 32.2025 125.49 29.6803 125.49 24.8461C125.49 20.1019 129.274 16.6789 133.657 16.6789C136.54 16.6789 138.762 17.4896 138.762 18.3004C138.762 18.991 137.831 19.9218 136.87 19.9218C136.12 19.9218 134.708 19.051 132.306 17.1594C129.514 17.6398 127.622 20.132 127.622 23.3748C127.622 27.4884 130.174 30.3108 134.078 30.3108C136.39 30.3108 138.041 29.2599 139.422 27.6986L139.693 27.9688C138.161 30.0706 135.819 32.2025 132.607 32.2025Z" fill="#C19915"/>
<path d="M142.164 31.9022V31.5119C143.095 31.2417 143.365 30.5511 143.365 28.0889V21.1829C143.365 19.081 143.005 18.7808 142.164 18.4205V18.0902L145.467 16.6489L145.707 16.8591V28.0889C145.707 30.5511 146.007 31.2417 146.908 31.5119V31.9022H142.164ZM144.356 14.8173C143.425 14.8173 142.704 14.0667 142.704 13.1659C142.704 12.205 143.425 11.4844 144.356 11.4844C145.317 11.4844 146.007 12.205 146.007 13.1659C146.007 14.0667 145.286 14.8173 144.356 14.8173Z" fill="#C19915"/>
<path d="M157.796 32.2025C153.982 32.2025 149.929 29.8304 149.929 24.6059C149.929 19.9218 153.682 16.6789 157.796 16.6789C161.519 16.6789 165.633 18.9609 165.633 24.3056C165.633 29.4401 161.339 32.2025 157.796 32.2025ZM158.696 31.5719C161.909 31.5719 163.351 28.9897 163.351 26.0771C163.351 22.2038 160.618 17.0393 156.685 17.2494C153.622 17.3695 152.241 19.8917 152.241 22.8944C152.241 26.7077 154.703 31.5719 158.696 31.5719Z" fill="#C19915"/>
<path d="M174.357 32.2025C171.204 32.2025 169.763 30.1907 169.763 26.7377V21.1829C169.763 19.081 169.373 18.7808 168.562 18.4205V18.0902L171.835 16.6489L172.105 16.8591V26.1973C172.105 29.6202 173.066 31.1516 175.468 31.1516C177.24 31.1516 178.861 30.0406 180.212 28.5994V21.1829C180.212 19.081 179.822 18.7808 179.011 18.4205V18.0902L182.284 16.6489L182.554 16.8591V28.0889C182.554 30.5511 182.824 31.2417 183.755 31.5119V31.9022H181.203C180.542 31.9022 180.212 31.5719 180.212 30.7012V29.1698C178.681 30.7612 176.609 32.2025 174.357 32.2025Z" fill="#C19915"/>
<path d="M192.505 32.1725C190.103 32.1725 188.031 31.4518 187.04 30.7913L186.77 27.1581L187.04 27.098C188.301 29.9505 190.433 31.662 193.166 31.6921C195.027 31.6921 196.408 30.5811 196.408 28.8996C196.408 26.7377 194.307 26.0471 191.995 25.2965C189.142 24.3957 187.1 23.615 187.1 20.8826C187.1 18.5105 189.082 16.6789 192.565 16.6789C194.517 16.6789 196.288 17.0993 197.219 17.4896L197.339 20.5523L197.039 20.6124C196.078 18.4505 194.157 17.0693 192.025 17.0693C189.983 17.0693 188.662 18.0601 188.662 19.5915C188.662 21.4831 190.583 22.2638 192.955 23.0445C195.237 23.7952 198 24.4858 198 27.4884C198 30.0106 196.108 32.1424 192.505 32.1725Z" fill="#C19915"/>
<path d="M66.9671 60.0823L52.8247 41.6762V54.8277C52.8247 58.2507 53.5454 59.0914 54.8966 59.4518V59.8421H51.1433V59.4518C52.0441 59.1815 52.3443 58.4909 52.3443 56.0288V42.6371C52.3443 40.1749 51.984 39.4843 50.783 39.2141V38.8237H53.7255L66.847 55.8186V43.8381C66.847 40.4151 66.1264 39.5744 64.7752 39.2141V38.8237H68.5585V39.2141C67.6277 39.4843 67.3574 40.1749 67.3574 42.6371V60.0823H66.9671Z" fill="#C19915"/>
<path d="M83.2375 59.8421C82.637 59.8421 82.3368 59.5118 82.3368 58.9413V53.5366C81.4059 57.2298 78.8837 60.1424 75.9111 60.1424C73.6892 60.1424 71.7075 58.7912 71.7075 56.2089C71.7075 53.0862 74.8602 51.9152 78.4334 50.9243L82.3368 49.8734C82.1866 46.9608 80.6853 45.6097 78.1331 45.6097C76.3315 45.6097 74.59 46.4504 73.0887 48.282L72.8184 48.0418C74.5299 45.9099 76.7219 44.6188 79.3341 44.6188C82.9673 44.6188 84.6488 46.6306 84.6488 50.0235V56.0288C84.6488 58.4909 84.919 59.1815 85.8498 59.4518V59.8421H83.2375ZM73.9594 55.3682C73.9594 57.3199 75.3106 58.3708 77.0221 58.3708C80.2349 58.3708 82.3067 54.3173 82.3368 51.1645V50.2637L78.5535 51.2846C76.3315 51.9152 73.9294 52.906 73.9594 55.3682Z" fill="#C19915"/>
<path d="M88.4403 59.8421V59.4518C89.3711 59.1815 89.6413 58.4909 89.6413 56.0288V49.1227C89.6413 47.0209 89.251 46.7206 88.4403 46.3603V46.03L91.7132 44.5888L91.9834 44.799V47.3512C93.785 45.9099 96.0369 44.6188 98.1988 44.6188C100.421 44.6188 101.832 45.5196 102.372 47.4413C104.174 46 106.486 44.6188 108.738 44.6188C111.651 44.6188 113.152 46.2102 113.152 49.6031V56.0288C113.152 58.4909 113.452 59.1815 114.353 59.4518V59.8421H109.609V59.4518C110.54 59.1815 110.81 58.4909 110.81 56.0288V50.1436C110.81 47.171 109.729 45.6097 107.387 45.6097C105.675 45.6097 104.114 46.5405 102.463 47.8316C102.583 48.342 102.643 48.9426 102.643 49.6031V56.0288C102.643 58.4909 102.913 59.1815 103.844 59.4518V59.8421H99.0996V59.4518C100 59.1815 100.301 58.4909 100.301 56.0288V50.1436C100.301 47.171 99.1897 45.6097 96.8777 45.6097C95.1662 45.6097 93.6048 46.5405 91.9834 47.7715V56.0288C91.9834 58.4909 92.2536 59.1815 93.1844 59.4518V59.8421H88.4403Z" fill="#C19915"/>
<path d="M128.466 59.8421C127.865 59.8421 127.565 59.5118 127.565 58.9413V53.5366C126.634 57.2298 124.112 60.1424 121.139 60.1424C118.917 60.1424 116.936 58.7912 116.936 56.2089C116.936 53.0862 120.088 51.9152 123.662 50.9243L127.565 49.8734C127.415 46.9608 125.913 45.6097 123.361 45.6097C121.56 45.6097 119.818 46.4504 118.317 48.282L118.047 48.0418C119.758 45.9099 121.95 44.6188 124.562 44.6188C128.195 44.6188 129.877 46.6306 129.877 50.0235V56.0288C129.877 58.4909 130.147 59.1815 131.078 59.4518V59.8421H128.466ZM119.188 55.3682C119.188 57.3199 120.539 58.3708 122.25 58.3708C125.463 58.3708 127.535 54.3173 127.565 51.1645V50.2637L123.782 51.2846C121.56 51.9152 119.158 52.906 119.188 55.3682Z" fill="#C19915"/>
<path d="M133.518 59.8421V59.5118L141.926 45.2794H137.992C136.071 45.2794 135.05 46.0901 134.059 48.6423L133.789 48.5823L134.329 44.829H144.538V45.1593L136.191 59.3917H140.574C142.616 59.3917 144.148 58.3108 144.538 55.3982H144.808L144.718 59.8421H133.518Z" fill="#C19915"/>
<path fill-rule="evenodd" clip-rule="evenodd" d="M26.329 3.11836C26.329 4.2834 25.4477 5.2426 24.3155 5.36572C24.3296 5.44965 24.342 5.55547 24.3521 5.68801C24.8102 7.69304 25.6953 9.60645 26.8548 11.3133C28.4698 13.6902 30.6008 15.6859 32.9209 17.3862C33.7989 18.0294 34.7098 18.6365 35.6205 19.2434C36.1212 19.5771 36.6218 19.9108 37.1169 20.2504C37.118 20.3015 37.1189 20.3518 37.1196 20.4013L37.1254 20.4049L37.363 27.4714L36.7689 27.5901C34.4523 22.1864 28.8093 18.5641 21.7406 18.5641C12.2959 18.5641 4.98965 24.8586 4.98965 36.9725C4.93025 48.1363 11.7019 58.825 24.0572 58.825C30.4725 58.825 35.4621 55.4402 37.7788 49.027L38.4322 49.0864L37.4818 56.806C34.6899 58.35 29.0469 60.0127 22.394 60.0127C8.73188 60.0127 0 52.4118 0 39.4665C0 33.2126 2.39611 27.7572 6.50621 23.8396C8.19119 22.0204 10.274 20.6322 12.3577 19.2434C13.2684 18.6365 14.1793 18.0294 15.0572 17.3862C17.3774 15.6865 19.5084 13.6908 21.1233 11.3133C22.2823 9.60645 23.1679 7.69304 23.6261 5.68801C23.6326 5.54425 23.6393 5.42988 23.6461 5.33972C22.5993 5.14198 21.8076 4.22263 21.8076 3.11836C21.8076 1.8698 22.9379 0.857643 24.0683 0.857643C24.3978 0.857643 24.7108 0.928135 24.9931 1.05486C22.2186 1.05486 22.1159 3.11836 22.7324 4.0432C23.2702 4.9036 25.6097 5.48184 26.2704 2.60456C26.3087 2.76962 26.329 2.94162 26.329 3.11836ZM18.9322 17.8293C20.4754 17.5705 22.088 17.4358 23.7602 17.4358C25.5148 17.4358 27.3675 17.611 29.1378 17.9011C26.0381 15.4038 24.6006 12.5635 23.9907 10.0553C23.3867 12.5395 21.9707 15.3494 18.9322 17.8293Z" fill="#334839"/>
<path d="M30.5698 50.5934L14.6817 30.041V44.7261C14.6817 48.5482 15.4913 49.487 17.0093 49.8893V50.3252H12.7927V49.8893C13.8047 49.5875 14.142 48.8164 14.142 46.0672V31.1139C14.142 28.3646 13.7372 27.5935 12.3879 27.2917V26.8559H15.6937L30.4348 45.8325V32.455C30.4348 28.6328 29.6252 27.6941 28.1073 27.2917V26.8559H32.3576V27.2917C31.3119 27.5935 31.0083 28.3646 31.0083 31.1139V50.5934H30.5698Z" fill="#334839"/>
</svg>
